<svg id="Layer_1" data-name="Layer 1" xmlns="http://www.w3.org/2000/svg" viewBox="0 0 200 50"><defs><style>.cls-1{fill:none;stroke:#000;stroke-linecap:round;stroke-width:2px;}</style></defs><title>sine</title><path id="path7558" class="cls-1" d="M-15.1,24.55C-9,35.33-3,46.11,4,46.11M23,24.55c-6.07,10.78-12.13,21.56-19,21.56M23,24.56C29,13.78,35.11,3,42,3m19,21.56C55,13.78,48.92,3,42,3m19,21.55c6.06,10.78,12.13,21.56,19,21.56m19-21.56C93.05,35.33,87,46.11,80.07,46.11M99.12,24.56C105.18,13.78,111.25,3,118.16,3m19,21.56C131.13,13.78,125.06,3,118.15,3m19,21.55c6.06,10.78,12.13,21.55,19,21.55m19-21.55c-6.06,10.78-12.13,21.55-19,21.55m19-21.55C181.33,13.78,187.39,3,194.31,3m19,21.55C207.27,13.78,201.2,3,194.29,3m19,21.56c6.07,10.77,12.13,21.55,19,21.55m19-21.55c-6.06,10.77-12.13,21.55-19,21.55m19-21.55C257.47,13.78,263.53,3,270.45,3m19,21.55C283.41,13.78,277.35,3,270.43,3m19,21.54c6.07,10.78,12.13,21.56,19,21.56m0,0"/></svg>